<svg width="24" height="24" viewBox="0 0 24 24" fill="none" xmlns="http://www.w3.org/2000/svg">
<path d="M2 12C2 7.757 2 5.636 3.464 4.318C4.93 3 7.286 3 12 3C16.714 3 19.071 3 20.535 4.318C21.999 5.636 22 7.758 22 12C22 16.242 22 18.364 20.535 19.682C19.072 21 16.714 21 12 21C7.286 21 4.929 21 3.464 19.682C1.999 18.364 2 16.242 2 12Z" stroke="white" stroke-width="1.5" stroke-linecap="round" stroke-linejoin="round"/>
<path d="M5 16.5C6.208 13.919 10.712 13.75 12 16.5M15 10H19M15 14H19M10.5 9.5C10.5 10.0304 10.2893 10.5391 9.91421 10.9142C9.53914 11.2893 9.03043 11.5 8.5 11.5C7.96957 11.5 7.46086 11.2893 7.08579 10.9142C6.71071 10.5391 6.5 10.0304 6.5 9.5C6.5 8.96957 6.71071 8.46086 7.08579 8.08579C7.46086 7.71071 7.96957 7.5 8.5 7.5C9.03043 7.5 9.53914 7.71071 9.91421 8.08579C10.2893 8.46086 10.5 8.96957 10.5 9.5Z" stroke="white" stroke-width="1.5" stroke-linecap="round" stroke-linejoin="round"/>
</svg>
