<svg width="24" height="24" viewBox="0 0 24 24" fill="none" xmlns="http://www.w3.org/2000/svg">
<path d="M8.125 2C7.56141 2 7.02091 2.22388 6.6224 2.6224C6.22388 3.02091 6 3.56141 6 4.125V19.875C6 20.4386 6.22388 20.9791 6.6224 21.3776C7.02091 21.7761 7.56141 22 8.125 22H15.875C16.4386 22 16.9791 21.7761 17.3776 21.3776C17.7761 20.9791 18 20.4386 18 19.875V4.125C18 3.56141 17.7761 3.02091 17.3776 2.6224C16.9791 2.22388 16.4386 2 15.875 2H8.125ZM7.25 4.125C7.25 3.642 7.642 3.25 8.125 3.25H15.875C16.3585 3.25 16.75 3.642 16.75 4.125V19.875C16.75 20.1071 16.6578 20.3296 16.4937 20.4937C16.3296 20.6578 16.1071 20.75 15.875 20.75H8.125C7.89294 20.75 7.67038 20.6578 7.50628 20.4937C7.34219 20.3296 7.25 20.1071 7.25 19.875V4.125ZM10.625 17.75C10.4592 17.75 10.3003 17.8158 10.1831 17.9331C10.0658 18.0503 10 18.2092 10 18.375C10 18.5408 10.0658 18.6997 10.1831 18.8169C10.3003 18.9342 10.4592 19 10.625 19H13.375C13.5408 19 13.6997 18.9342 13.8169 18.8169C13.9342 18.6997 14 18.5408 14 18.375C14 18.2092 13.9342 18.0503 13.8169 17.9331C13.6997 17.8158 13.5408 17.75 13.375 17.75H10.625Z" fill="white"/>
</svg>
